<svg width="214" height="243" viewBox="0 0 214 243" fill="none" xmlns="http://www.w3.org/2000/svg">
<path d="M107 165.048L107.089 164.949M17.8335 62.4167C71.3335 22.2917 142.667 22.2917 196.167 62.4167M44.5835 98.0833C80.2502 71.3333 133.75 71.3333 169.417 98.0833M75.7918 129.292C95.8543 116.808 118.146 116.808 138.208 129.292M152.662 190.496L171.584 171.583M171.584 171.583L190.496 152.662M171.584 171.583L152.653 152.653M171.575 171.575L190.487 190.487" stroke="white" stroke-width="10" stroke-linecap="round" stroke-linejoin="round"/>
<path d="M48.9063 241H45.4063L37.4813 229.025V241H33.9813V223.525H37.4813L45.4063 235.525V223.525H48.9063V241ZM58.5151 241.225C57.1818 241.225 55.9818 240.933 54.9151 240.35C53.8485 239.75 53.0068 238.908 52.3901 237.825C51.7901 236.742 51.4901 235.492 51.4901 234.075C51.4901 232.658 51.7985 231.408 52.4151 230.325C53.0485 229.242 53.9068 228.408 54.9901 227.825C56.0735 227.225 57.2818 226.925 58.6151 226.925C59.9485 226.925 61.1568 227.225 62.2401 227.825C63.3235 228.408 64.1735 229.242 64.7901 230.325C65.4235 231.408 65.7401 232.658 65.7401 234.075C65.7401 235.492 65.4151 236.742 64.7651 237.825C64.1318 238.908 63.2651 239.75 62.1651 240.35C61.0818 240.933 59.8651 241.225 58.5151 241.225ZM58.5151 238.175C59.1485 238.175 59.7401 238.025 60.2901 237.725C60.8568 237.408 61.3068 236.942 61.6401 236.325C61.9735 235.708 62.1401 234.958 62.1401 234.075C62.1401 232.758 61.7901 231.75 61.0901 231.05C60.4068 230.333 59.5651 229.975 58.5651 229.975C57.5651 229.975 56.7235 230.333 56.0401 231.05C55.3735 231.75 55.0401 232.758 55.0401 234.075C55.0401 235.392 55.3651 236.408 56.0151 237.125C56.6818 237.825 57.5151 238.175 58.5151 238.175ZM77.7646 223.55V241H74.2646V223.55H77.7646ZM88.8976 226.95C90.5476 226.95 91.8809 227.475 92.8976 228.525C93.9142 229.558 94.4226 231.008 94.4226 232.875V241H90.9226V233.35C90.9226 232.25 90.6476 231.408 90.0976 230.825C89.5476 230.225 88.7976 229.925 87.8476 229.925C86.8809 229.925 86.1142 230.225 85.5476 230.825C84.9976 231.408 84.7226 232.25 84.7226 233.35V241H81.2226V227.15H84.7226V228.875C85.1892 228.275 85.7809 227.808 86.4976 227.475C87.2309 227.125 88.0309 226.95 88.8976 226.95ZM101.826 230.025V236.725C101.826 237.192 101.934 237.533 102.151 237.75C102.384 237.95 102.768 238.05 103.301 238.05H104.926V241H102.726C99.7759 241 98.3009 239.567 98.3009 236.7V230.025H96.6509V227.15H98.3009V223.725H101.826V227.15H104.926V230.025H101.826ZM120.318 233.775C120.318 234.275 120.285 234.725 120.218 235.125H110.093C110.177 236.125 110.527 236.908 111.143 237.475C111.76 238.042 112.518 238.325 113.418 238.325C114.718 238.325 115.643 237.767 116.193 236.65H119.968C119.568 237.983 118.802 239.083 117.668 239.95C116.535 240.8 115.143 241.225 113.493 241.225C112.16 241.225 110.96 240.933 109.893 240.35C108.843 239.75 108.018 238.908 107.418 237.825C106.835 236.742 106.543 235.492 106.543 234.075C106.543 232.642 106.835 231.383 107.418 230.3C108.002 229.217 108.818 228.383 109.868 227.8C110.918 227.217 112.127 226.925 113.493 226.925C114.81 226.925 115.985 227.208 117.018 227.775C118.068 228.342 118.877 229.15 119.443 230.2C120.027 231.233 120.318 232.425 120.318 233.775ZM116.693 232.775C116.677 231.875 116.352 231.158 115.718 230.625C115.085 230.075 114.31 229.8 113.393 229.8C112.527 229.8 111.793 230.067 111.193 230.6C110.61 231.117 110.252 231.842 110.118 232.775H116.693ZM126.373 229.3C126.823 228.567 127.406 227.992 128.123 227.575C128.856 227.158 129.69 226.95 130.623 226.95V230.625H129.698C128.598 230.625 127.765 230.883 127.198 231.4C126.648 231.917 126.373 232.817 126.373 234.1V241H122.873V227.15H126.373V229.3ZM140.655 226.95C142.305 226.95 143.639 227.475 144.655 228.525C145.672 229.558 146.18 231.008 146.18 232.875V241H142.68V233.35C142.68 232.25 142.405 231.408 141.855 230.825C141.305 230.225 140.555 229.925 139.605 229.925C138.639 229.925 137.872 230.225 137.305 230.825C136.755 231.408 136.48 232.25 136.48 233.35V241H132.98V227.15H136.48V228.875C136.947 228.275 137.539 227.808 138.255 227.475C138.989 227.125 139.789 226.95 140.655 226.95ZM162.384 233.775C162.384 234.275 162.35 234.725 162.284 235.125H152.159C152.242 236.125 152.592 236.908 153.209 237.475C153.825 238.042 154.584 238.325 155.484 238.325C156.784 238.325 157.709 237.767 158.259 236.65H162.034C161.634 237.983 160.867 239.083 159.734 239.95C158.6 240.8 157.209 241.225 155.559 241.225C154.225 241.225 153.025 240.933 151.959 240.35C150.909 239.75 150.084 238.908 149.484 237.825C148.9 236.742 148.609 235.492 148.609 234.075C148.609 232.642 148.9 231.383 149.484 230.3C150.067 229.217 150.884 228.383 151.934 227.8C152.984 227.217 154.192 226.925 155.559 226.925C156.875 226.925 158.05 227.208 159.084 227.775C160.134 228.342 160.942 229.15 161.509 230.2C162.092 231.233 162.384 232.425 162.384 233.775ZM158.759 232.775C158.742 231.875 158.417 231.158 157.784 230.625C157.15 230.075 156.375 229.8 155.459 229.8C154.592 229.8 153.859 230.067 153.259 230.6C152.675 231.117 152.317 231.842 152.184 232.775H158.759ZM169.013 230.025V236.725C169.013 237.192 169.122 237.533 169.338 237.75C169.572 237.95 169.955 238.05 170.488 238.05H172.113V241H169.913C166.963 241 165.488 239.567 165.488 236.7V230.025H163.838V227.15H165.488V223.725H169.013V227.15H172.113V230.025H169.013ZM179.156 223.25L178.756 235.325H175.806L175.381 223.25H179.156ZM177.356 241.175C176.722 241.175 176.197 240.983 175.781 240.6C175.381 240.2 175.181 239.708 175.181 239.125C175.181 238.542 175.381 238.058 175.781 237.675C176.197 237.275 176.722 237.075 177.356 237.075C177.972 237.075 178.481 237.275 178.881 237.675C179.281 238.058 179.481 238.542 179.481 239.125C179.481 239.708 179.281 240.2 178.881 240.6C178.481 240.983 177.972 241.175 177.356 241.175Z" fill="white"/>
</svg>
