<?xml version="1.0" encoding="utf-8" ?><svg xmlns="http://www.w3.org/2000/svg" xmlns:xlink="http://www.w3.org/1999/xlink" width="1108" height="1108" viewBox="0 0 1108 1108"><path transform="scale(4.92512 4.92512)" d="M39.2539 20.3907C41.257 20.2004 44.7581 20.2489 46.8824 20.2231C47.1233 28.7902 45.1546 39.4629 50.9046 45.8749C56.6022 52.2285 66.7999 52.587 72.9766 46.9485C79.5615 40.9373 77.6945 28.804 78.0039 20.2485C85.447 20.4142 93.4021 20.2667 100.908 20.2974C100.979 21.7556 100.939 23.4988 100.946 24.9935L100.99 33.1146C101.029 38.9425 101.124 42.5475 105.535 46.7882C111.428 52.4536 121.633 52.5289 127.296 46.5205C132.258 41.2545 131.79 36.9487 131.785 30.3299L131.745 20.2241C138.716 20.4564 147.505 20.3414 154.536 20.2394C154.53 20.4783 154.526 20.7172 154.524 20.9561C154.503 24.8253 154.535 37.4368 155.396 40.6109C158.164 50.8038 173.815 54.8575 181.191 46.5278C186.146 40.9318 185.698 37.3781 185.729 30.1811C185.75 26.8948 185.744 23.6083 185.713 20.322C193.927 20.9665 200.93 23.4683 206.931 29.3189C210.162 32.4684 214.386 38.9366 215.101 43.3551C216.281 50.6458 215.721 59.4362 215.905 66.9648C216.144 79.3089 216.212 91.6557 216.109 104.002L216.068 158.286C216.075 164.709 216.048 171.132 215.986 177.554C215.972 183.789 216.326 192.295 214.875 198.265C213.047 205.785 206.009 212.931 199.473 216.632C195.062 219.13 190.788 219.703 185.788 219.795C174.121 220.194 162.38 220.02 150.717 220.008L91.9435 220.003L56.3358 220.012C48.7558 220.012 39.7443 220.166 32.3859 219.181C23.9382 217.341 16.2945 210.589 12.2368 203.195C9.66059 198.5 9.32488 194.939 9.15087 189.907C8.73567 177.902 8.80541 165.832 8.79078 153.848L8.77755 96.7998C8.79277 79.4865 8.35865 61.3161 9.64007 44.0315C9.95873 39.7332 13.9705 33.6707 16.8441 30.5279C23.0249 23.768 30.1498 20.822 39.2539 20.3907ZM23.9524 81.7361C23.5806 107.029 23.8691 132.872 23.8416 158.204L23.8018 180.592C23.7877 187.702 22.572 195.07 28.2885 200.459C31.7093 203.683 33.5194 204.714 38.2843 204.762L138.485 204.883L171.341 204.941C176.826 204.955 182.485 205.018 187.978 204.898C189.759 204.86 191.88 203.895 193.475 203.034C203.371 195.793 201.041 187.595 201.033 176.486L201.019 142.25C201.156 128.311 201.192 114.371 201.129 100.431L201.128 88.611C201.126 86.6685 201.21 83.527 200.989 81.7083C181.93 81.3272 162.03 81.6598 142.906 81.6779L29.8919 81.6195L23.9524 81.7361Z"/><path transform="scale(4.92512 4.92512)" d="M51.2966 158.851C55.2894 158.787 64.7832 158.29 67.4838 160.856C70.6165 163.832 70.8114 176.558 67.3662 179.671C64.9535 181.851 61.6488 181.472 58.7152 181.481C50.8732 181.536 39.7399 183.752 39.5193 173.08C39.4278 168.651 38.8521 162.661 43.3415 159.985C45.209 158.872 49.1246 158.951 51.2966 158.851Z"/><path transform="scale(4.92512 4.92512)" d="M128.454 158.854L128.577 158.852C138.629 158.646 147.051 156.877 146.678 169.367C146.37 179.651 146.021 181.518 135.118 181.472C131.186 181.497 122.204 182.259 119.283 179.73C115.381 176.349 115.448 165.048 118.882 161.22C121.159 158.681 125.26 159.014 128.454 158.854Z"/><path transform="scale(4.92512 4.92512)" d="M89.6159 158.873C97.5508 158.705 108.276 156.931 108.259 167.664C108.243 178.106 108.583 181.467 96.8906 181.461C92.9945 181.487 83.6886 182.261 80.8589 179.784C76.9774 176.385 76.8798 165.128 80.3429 161.257C82.6183 158.713 86.446 159.037 89.6159 158.873Z"/><path transform="scale(4.92512 4.92512)" d="M50.1662 128.112C51.5318 128.038 53.0319 128.053 54.4046 128.054C62.6445 128.066 69.9036 126.701 69.7185 137.737C69.5808 145.95 70.4438 150.552 60.029 150.511C56.2828 150.535 52.34 150.497 48.5583 150.545C42.6609 150.834 39.6031 147.704 39.5059 141.839C39.3367 131.63 39.827 128.634 50.1662 128.112Z"/><path transform="scale(4.92512 4.92512)" d="M129.642 97.363C132.41 97.2247 135.352 97.4224 138.12 97.4043C143.634 97.3683 146.397 99.7186 146.611 105.284C147.111 118.265 146.502 119.476 133.796 119.912C130.406 119.966 121.605 120.281 119.22 118.141C115.486 114.789 115.374 103.185 118.889 99.5111C121.31 96.9814 126.417 97.4745 129.642 97.363Z"/><path transform="scale(4.92512 4.92512)" d="M127.104 128.112C131.494 128.001 136.201 127.911 140.485 128.324C146.973 129.11 146.743 135.531 146.708 140.395C146.648 148.996 144.524 150.565 136.497 150.502C134.865 150.511 132.955 150.53 131.335 150.528C123.438 150.56 116.594 151.761 116.482 141.28C116.379 131.566 116.966 128.554 127.104 128.112Z"/><path transform="scale(4.92512 4.92512)" d="M89.4137 128.111L92.6793 128.079C96.1979 128.061 103.563 127.557 106.023 130.208C109.245 133.681 109.396 145.351 105.843 148.801C103.624 150.955 100.426 150.526 97.5625 150.506C93.5514 150.472 83.4498 151.417 80.6391 148.758C77.035 145.348 76.8925 134.021 80.4967 130.308C82.9089 127.823 86.1769 128.239 89.4137 128.111Z"/><path transform="scale(4.92512 4.92512)" d="M166.718 128.117C167.127 128.109 167.537 128.103 167.946 128.099C171.826 128.066 180.416 127.418 183.053 130.201C186.19 133.511 186.387 145.342 182.89 148.699C180.471 151.021 177.377 150.522 174.307 150.509C170.245 150.488 160.559 151.374 157.73 148.814C154.01 145.449 153.831 134.018 157.494 130.301C159.997 127.761 163.453 128.224 166.718 128.117Z"/><path transform="scale(4.92512 4.92512)" d="M168.268 97.3679C174.788 97.3684 185.165 95.7216 185.219 105.202C185.249 110.533 186.512 118.562 179.213 119.538C177.004 119.833 174.559 119.838 172.311 119.92C168.974 119.954 160.225 120.305 157.852 118.152C153.8 114.475 153.444 101.269 158.93 98.3888C161.204 97.1949 165.63 97.4707 168.268 97.3679Z"/><path transform="scale(4.92512 4.92512)" d="M91.179 97.3657C97.9774 97.0774 108.007 95.993 108.232 105.216C108.555 118.453 107.882 119.516 95.0625 119.88C91.7351 119.913 83.025 120.221 80.7233 118.105C77.0481 114.727 76.9207 103.416 80.3901 99.6399C82.9517 96.8519 87.733 97.5087 91.179 97.3657Z"/><path transform="scale(4.92512 4.92512)" d="M61.7121 5.0522C63.4093 5.01088 64.9704 5.45425 66.4298 6.31433C67.841 7.14598 68.8398 8.22538 69.2354 9.83023C70.2243 13.8422 70.6897 36.4439 68.7649 39.5658C67.5009 41.6157 65.4635 42.305 63.2484 42.822C60.5503 43.3017 56.0822 41.2397 55.7048 38.0874C54.6849 29.5684 54.7741 20.5081 55.1971 11.9305C55.3819 8.18344 58.1647 5.79023 61.7121 5.0522Z"/><path transform="scale(4.92512 4.92512)" d="M169.579 5.04708C171.123 5.06201 172.638 5.469 173.982 6.22985C175.34 6.99816 176.734 8.21634 177.123 9.79076C177.958 13.1679 177.903 37.3324 176.704 39.2428C175.283 41.5071 173.142 42.3065 170.674 42.8777C167.153 42.9016 163.709 41.0703 163.293 37.3045C162.397 29.1781 162.59 20.3698 162.925 12.199C163.096 8.00578 165.625 5.8152 169.579 5.04708Z"/><path transform="scale(4.92512 4.92512)" d="M115.528 5.0416C117.258 4.96278 119.114 5.5594 120.562 6.47004C121.732 7.20551 122.874 8.33573 123.168 9.73278C123.899 13.2042 124.274 37.0695 122.712 39.4413C121.258 41.6504 119.347 42.3511 116.875 42.8373C111.932 43.6481 109.089 39.1024 109.063 34.6308C109.021 27.2736 108.449 19.8297 109.028 12.4736C109.363 8.21255 111.436 5.99434 115.528 5.0416Z"/></svg>