<?xml version="1.0" encoding="utf-8" ?><svg xmlns="http://www.w3.org/2000/svg" xmlns:xlink="http://www.w3.org/1999/xlink" width="506" height="576" viewBox="0 0 506 576"><path fill="#006332" d="M219.021 8.25182C233.497 6.97255 246.992 6.15559 261.556 7.28868C265.753 7.61516 271.795 7.98155 275.841 8.8383C344.932 20.5088 398.75 62.1008 426.547 126.753C436.821 150.635 442.663 176.186 443.786 202.159C444.245 211.667 444.069 222.376 444.087 231.956L444.138 277.963C444.135 305.856 444.345 333.882 443.798 361.757C443.663 368.618 443.001 375.158 442.638 381.927C446.198 383.336 458.869 389.054 460.471 391.621C461.849 393.829 455.123 412.42 453.894 416.119C452.536 420.206 450.533 427.372 448.939 430.866C452.374 431.798 478.244 439.984 479.545 442.002C479.924 442.59 479.939 443.286 479.689 443.92C478.464 447.022 474.807 450.267 472.591 452.755C467.738 458.164 462.943 463.626 458.208 469.14C456.172 471.496 452.694 475.205 451.183 477.654L451.199 478.059C451.358 481.57 452.144 486.213 452.686 489.756C453.773 496.882 454.928 503.999 456.151 511.103C456.594 513.642 459.242 526.173 458.17 527.863C456.099 529.61 446.242 526.251 443.295 525.442L420.912 519.22L398.444 513.177C395.775 512.453 390.639 511.227 388.173 510.333C385.344 509.637 380.007 508.387 377.482 507.285C376.256 508.958 372.361 512.301 370.625 513.874C346.114 534.128 321.502 547.198 290.388 554.618C281.754 556.677 271.019 558.767 262.182 559.401C218.251 562.992 174.435 551.226 138.212 526.113C129.249 519.917 122.67 514.091 114.51 507.036C112.108 508.106 103.997 510.139 101.023 510.946L75.2686 517.981L50.1211 525.131C46.9904 526.018 36.2157 529.872 33.5899 527.997C33.1565 526.968 33.2957 524.521 33.4668 523.377C35.2728 511.294 37.8966 499.345 39.9183 487.297C40.404 484.402 40.8788 481.469 41.6095 478.627C33.271 466.62 21.6319 456.386 12.9869 444.612C12.4799 443.922 12.6511 442.78 12.9472 442.011C14.8623 439.848 39.2467 432.385 43.6543 431.082C39.2793 419.679 35.7492 407.15 32.091 395.458C30.8993 391.649 32.5909 390.347 35.8121 388.678C40.3869 386.308 45.1818 383.932 49.9436 381.915C49.8413 381.396 49.7517 380.874 49.6748 380.35C48.3123 371.133 48.2658 353.213 48.2404 343.769L48.1869 296.287L48.1916 238.905C48.2005 225.65 47.8505 210.483 48.8271 197.442C51.5613 157.021 65.7189 118.208 89.6523 85.5197C120.555 43.3345 167.225 15.4602 219.021 8.25182Z"/><path fill="#004A26" d="M426.698 492.1C429.062 487.218 432.622 476.508 434.519 471.225L448.939 430.866C452.374 431.798 478.244 439.984 479.545 442.002C479.924 442.59 479.939 443.286 479.689 443.92C478.464 447.022 474.807 450.267 472.591 452.755C467.738 458.164 462.943 463.626 458.208 469.14C456.172 471.496 452.694 475.205 451.183 477.654L451.199 478.059C451.358 481.57 452.144 486.213 452.686 489.756C453.773 496.882 454.928 503.999 456.151 511.103C456.594 513.642 459.242 526.173 458.17 527.863C456.099 529.61 446.242 526.251 443.295 525.442L420.912 519.22L398.444 513.177C395.775 512.453 390.639 511.227 388.173 510.333C385.344 509.637 380.007 508.387 377.482 507.285C377.971 506.253 383.271 501.374 384.389 500.045C389.224 494.3 394.023 488.36 398.576 482.399C401.263 483.597 404.232 484.304 407.03 485.223C413.274 487.273 420.803 489.296 426.698 492.1Z"/><path fill="#004A26" d="M43.6543 431.082C44.87 434.343 45.9652 438.415 47.2222 441.916C53.2222 458.714 59.4318 475.437 65.8495 492.081C68.965 490.477 72.0843 489.775 75.3233 488.685C81.1604 486.72 88.0156 485.097 93.7333 482.965C98.2156 490.088 108.598 500.809 114.51 507.036C112.108 508.106 103.997 510.139 101.023 510.946L75.2686 517.981L50.1211 525.131C46.9904 526.018 36.2157 529.872 33.5899 527.997C33.1565 526.968 33.2957 524.521 33.4668 523.377C35.2728 511.294 37.8966 499.345 39.9183 487.297C40.404 484.402 40.8788 481.469 41.6095 478.627C33.271 466.62 21.6319 456.386 12.9869 444.612C12.4799 443.922 12.6511 442.78 12.9472 442.011C14.8623 439.848 39.2467 432.385 43.6543 431.082Z"/><path fill="#FEEA75" d="M237.014 22.0599C242.902 21.8309 248.797 21.8196 254.686 22.0261C302.245 23.5875 347.121 44.4365 378.985 79.7752C407.551 111.355 424.896 151.479 428.329 193.923C429.325 205.413 429.129 217.347 429.13 228.882L429.133 274.005C429.133 307.341 429.809 343.127 428.396 376.219C424.594 374.808 420.501 373.501 416.602 372.386C377.63 361.243 337.272 355.933 296.867 353.526C283.107 352.609 269.321 352.137 255.531 352.113C201.767 352.083 148.258 354.688 95.6837 367.18C86.23 369.427 73.3583 372.852 64.3749 376.346C64.2158 374.894 64.0922 373.438 64.0041 371.98C63.2437 358.77 63.418 345.215 63.4168 331.958L63.4189 277.263L63.4158 229.797C63.416 216.826 63.1703 204.603 64.4058 191.644C68.2988 150.505 85.1882 111.672 112.627 80.772C138.828 51.5619 173.967 31.853 212.555 24.7249C221.143 23.1584 228.421 22.5505 237.014 22.0599Z"/><path fill="#007E68" d="M163.021 86.4821C171.238 86.4608 183.058 86.0513 191.215 86.9116C196.248 87.4424 199.205 100.559 202.569 102.383C208.431 105.561 221.128 100.704 226.678 105.862C228.505 107.559 229.742 109.876 229.758 112.449C229.827 123.791 229.862 135.432 229.828 146.748C229.817 150.484 230.071 163.826 229.555 166.67C229.212 168.575 228.308 170.333 226.959 171.72C225.715 173.017 224.123 174.073 222.345 174.328C217.402 175.036 211.392 174.768 206.32 174.765L177.62 174.737L143.606 174.753C137.367 174.761 126.388 175.657 120.38 173.206C118.756 172.544 115.998 168.378 115.866 166.604C115.286 158.794 115.533 150.652 115.529 142.768L115.527 123.681C115.531 115.31 113.571 105.815 124.141 103.776C124.085 101.908 123.689 99.0484 124.797 97.6525C127.223 96.8115 136.21 96.8175 138.769 97.6156C139.82 98.7718 139.494 100.781 139.46 102.436C141.638 102.423 143.816 102.457 145.992 102.539C147.874 98.6387 150.611 92.143 153.272 88.9838C155.64 86.1721 159.67 86.4581 163.021 86.4821Z"/><path fill="#6FD1B7" d="M170.642 108.526C187.021 106.84 201.65 118.786 203.27 135.17C204.891 151.554 192.884 166.134 176.493 167.688C160.195 169.233 145.715 157.311 144.104 141.02C142.494 124.73 154.357 110.203 170.642 108.526Z"/><path fill="#007E68" d="M170.843 115.805C183.159 114.247 194.408 122.965 195.97 135.281C197.532 147.596 188.817 158.847 176.501 160.413C164.179 161.98 152.921 153.26 151.359 140.939C149.796 128.618 158.52 117.363 170.843 115.805Z"/><path fill="#6FD1B7" d="M214.412 114.027C216.683 113.452 218.989 114.834 219.552 117.108C220.116 119.382 218.722 121.68 216.445 122.232C214.185 122.78 211.906 121.399 211.347 119.141C210.787 116.884 212.157 114.598 214.412 114.027Z"/><path fill="#FEBD19" d="M170.559 227.859C175.884 227.14 178.425 229.299 180.981 233.557C184.417 239.28 187.659 245.078 191.005 250.848C198.957 264.432 206.825 278.063 214.609 291.743C218.6 298.717 222.775 305.689 226.65 312.727C227.35 313.998 227.782 315.331 227.869 316.794C228.025 319.434 227.054 322.016 225.197 323.898C224.008 325.112 222.305 326.176 220.63 326.431C215.107 327.271 208.396 326.978 202.78 326.971L174.456 326.956L144.191 326.989C138.304 327.008 132.54 327.064 126.621 326.865C119.722 326.634 114.667 319.873 118.011 313.501C120.893 308.01 124.225 302.52 127.313 297.086L146.697 263.118L158.607 242.417C160.683 238.796 162.923 234.65 165.298 231.213C166.511 229.458 168.611 228.567 170.559 227.859Z"/><path fill="#E65337" d="M172.214 253.744C173.218 253.831 174.204 253.995 175.142 254.38C176.485 254.931 177.812 256.017 178.306 257.424C179.143 259.81 178.086 289.333 177.052 291.211C176.186 292.783 174.845 293.355 173.187 293.827C168.478 293.299 167.986 291.131 167.792 286.95C167.358 277.604 166.354 268.232 166.192 258.881C166.14 255.833 169.734 254.31 172.214 253.744Z"/><path fill="#E65337" d="M171.052 301.302C174.251 300.483 177.516 302.381 178.387 305.567C179.258 308.752 177.414 312.047 174.243 312.97C172.145 313.581 169.881 313.013 168.32 311.485C166.759 309.956 166.143 307.705 166.709 305.595C167.275 303.485 168.935 301.844 171.052 301.302Z"/><path fill="#E65337" d="M311.958 71.2618C322.339 70.6846 330.48 72.5856 338.834 79.1241C346.658 85.1261 351.753 94.012 352.979 103.797C353.704 110.025 353.089 116.336 351.175 122.307C346.942 135.893 335.68 152.58 328.384 165.113C326.198 168.867 320.652 177.71 318.125 180.95C317.625 181.469 317.015 182.079 316.262 182.184C315.422 182.301 314.737 181.99 314.102 181.474C310.912 178.881 291.808 145.575 288.527 139.524C286.708 136.195 285.029 132.791 283.493 129.323C281.218 124.136 279.316 118.699 278.608 113.058C277.331 103.084 280.125 93.0157 286.36 85.1257C293.04 76.6603 301.383 72.4743 311.958 71.2618Z"/><path fill="#FEEA75" d="M314.542 93.3867C323.174 92.6337 330.774 99.0389 331.494 107.673C332.213 116.307 325.778 123.882 317.14 124.567C308.55 125.249 301.026 118.857 300.311 110.271C299.595 101.684 305.958 94.1355 314.542 93.3867Z"/><path fill="#FEBD19" d="M243.291 54.1074C245.228 53.9625 247.153 53.6348 248.907 54.4447C250.169 56.0972 249.76 71.3724 249.762 74.269L249.78 103.175L249.939 204.028C279.33 203.492 310.249 203.959 339.733 203.956L381.751 203.961C387.319 203.972 392.916 204.004 398.433 203.89C401.367 203.83 402.373 204.961 402.419 207.544C402.483 211.122 401.881 212.071 398.435 212.104C392.629 212.159 386.947 212.116 381.202 212.103L348.993 212.086L250.002 212.064L250.013 304.469C250.025 314.825 250.374 331.323 249.735 341.879C249.694 342.55 248.533 343.136 247.914 343.43C247.438 343.476 246.961 343.507 246.483 343.522C243.721 343.619 242.321 342.562 242.267 339.643C242.182 335.055 242.223 330.455 242.22 325.865L242.202 298.18L242.181 212.116C230.127 211.861 217.22 212.098 205.084 212.099L131.943 212.101L104.27 212.09C100.426 212.088 96.5124 212.057 92.6631 212.154C91.8978 212.158 90.795 211.896 90.2058 211.388C88.7322 210.116 88.9416 205.887 90.4261 204.703C91.0838 204.179 93.6609 204.012 94.565 204.002C100.347 203.939 106.134 203.971 111.917 203.975L143.926 203.977L241.959 203.962C242.134 164.77 241.634 96.47 242.095 54.966C242.1 54.5632 242.924 54.2741 243.291 54.1074Z"/><path fill="#006332" d="M272.315 263.836C277.348 263.584 283.736 263.753 288.839 263.755L318.182 263.769L345.413 263.75C350.395 263.734 355.374 263.704 360.355 263.739C362.845 263.757 364.044 264.554 363.989 267.323C363.969 268.235 363.572 269.099 362.892 269.708C361.595 270.893 360.043 270.602 358.315 270.555L358.322 311.948C359.942 311.893 361.798 311.621 363.167 312.302C364.481 313.675 364.448 316.634 363.227 318.015C334.055 318.692 304.473 317.54 275.268 318.101C271.985 318.164 270.859 316.804 271.726 313.446C272.878 312.353 275.343 312.727 277.06 312.768C276.84 298.864 277.014 284.489 277.04 270.556C276.006 270.589 274.316 270.727 273.37 270.332C270.669 269.202 271.227 266.029 272.315 263.836Z"/><path fill="#FEEA75" d="M294.602 270.593L307.62 270.576C307.331 280.219 307.782 290.436 307.598 300.126C307.552 302.53 307.775 309.949 307.398 311.883L294.69 311.878C294.397 298.335 294.627 284.199 294.602 270.593Z"/><path fill="#FEEA75" d="M328.458 270.59L340.978 270.563L340.998 311.894L328.461 311.915L328.458 270.59Z"/><path fill="#006332" d="M317.243 224.405C319.543 224.309 324.188 227.664 326.272 228.953L338.087 236.213L356.798 247.732C359.708 249.523 367.34 253.478 368.443 256.21C368.284 257.516 367.357 258.425 366.007 258.462C360.899 258.6 355.772 258.541 350.66 258.539L319.379 258.521L284.992 258.523C280.012 258.524 274.567 258.694 269.582 258.33C267.712 258.194 267.529 256.507 267.987 254.97C269.862 252.902 276.972 248.94 279.851 247.189L295.89 237.396C301.961 233.681 311.307 227.492 317.243 224.405Z"/><path fill="#006332" d="M265.664 322.073C272.511 321.622 368.251 321.708 369.735 322.319C370.647 323.905 370.234 327.624 370.199 329.554C370.186 330.282 370.032 330.215 369.518 330.617C364.944 330.969 357.083 330.74 352.338 330.739L320.605 330.737L285.302 330.738C279.391 330.74 271.138 330.969 265.376 330.595C264.983 328.173 264.728 324.364 265.664 322.073Z"/><path fill="#FEBD19" d="M235.351 466.456C271.963 465.721 308.576 467.856 344.854 472.844C355.942 474.389 371.625 476.81 382.534 479.665C380.325 482.502 377.614 485.593 375.207 488.267C344.567 521.795 301.948 541.898 256.586 544.218C249.098 544.498 241.842 544.604 234.353 544.085C192.957 541.286 153.862 524.025 123.905 495.321C118.583 490.264 113.956 484.911 109.14 479.387C150.662 470.802 192.951 466.469 235.351 466.456Z"/><path fill="#FEFEFE" d="M250.555 379.209C255.856 379.258 261.157 379.263 266.458 379.224L261.024 399.03C256.338 415.893 251.402 433.117 247.011 450.028C241.941 449.976 236.87 449.985 231.8 450.055C227.408 436.388 223.677 422.356 219.65 408.566C219.083 406.627 218.569 404.697 218.265 402.697C216.764 407.145 215.519 412.145 214.209 416.693C211.069 427.836 207.832 438.951 204.498 450.038C199.487 449.987 194.475 449.985 189.463 450.03C184.844 432.933 179.601 415.791 174.999 398.682C174.172 395.604 170.124 382.183 169.958 379.645C170.734 379.164 171.425 379.305 172.449 379.266L186.044 379.245C189.662 393.986 195.141 412.936 198.026 427.593C199.061 422.506 201.629 414.377 203.119 409.12C205.902 399.137 208.74 389.169 211.634 379.217C216.05 379.261 220.467 379.28 224.884 379.276L238.483 427.451L250.555 379.209Z"/><path fill="#FEFEFE" d="M344.114 379.223C350.435 379.26 369.61 378.701 374.6 379.983C378.337 380.967 381.775 382.852 384.612 385.475C400.031 399.482 391.291 426.472 369.018 427.263L359.292 427.294L359.248 449.96L344.121 450.028C344.28 444.37 344.029 438.383 344.103 432.684C344.335 415.019 343.68 396.836 344.114 379.223Z"/><path fill="#006332" d="M359.315 392.329C363.699 392.269 369.165 391.662 372.71 394.652C377.983 399.101 377.781 406.542 373.758 411.642C370.049 415.245 364.194 414.331 359.336 414.258C359.068 407.327 359.264 399.295 359.315 392.329Z"/><path fill="#FEFEFE" d="M301.687 377.55C314.329 376.578 325.976 382.045 331.75 393.677C332.607 395.403 333.305 397.196 334.024 398.983C329.447 400.687 324.551 401.975 319.833 403.285C318.483 399.257 315.923 395.586 312.178 393.466C308.278 391.309 303.674 390.812 299.404 392.088C285.601 396.172 284.305 414.021 287.682 425.597C290.377 434.833 299.697 439.853 308.859 436.872C314.35 435.085 317.099 431.175 319.557 426.255L319.754 425.797C321.034 425.321 332.136 429.44 333.806 430.028C328.941 442.567 322.15 449.266 308.128 450.939C298.923 452.07 289.49 449.829 282.158 444.088C266.999 432.216 266.873 403.344 278.681 389.196C284.754 381.92 292.317 378.443 301.687 377.55Z"/><path fill="#FEFEFE" d="M134.945 378.109C139.44 377.506 146.436 378.122 150.543 379.96C160.264 384.311 163.873 389.881 167.713 399.138C162.961 400.465 158.122 401.957 153.335 403.311C149.815 394.376 142.485 389.511 132.741 392.691C120.07 396.826 118.91 415.687 122.593 426.305C125.585 434.934 134.746 439.721 143.523 436.409C148.614 434.48 151.264 430.384 153.385 425.608C155.06 425.384 165.32 429.251 167.398 430.033C166.105 433.597 164.824 436.821 162.553 439.876C152.452 453.5 130.272 454.586 117.276 444.708C102.006 433.102 100.9 405.158 112.199 390.529C118.272 382.666 125.227 379.27 134.945 378.109Z"/></svg>