<?xml version="1.0" encoding="utf-8" ?><svg xmlns="http://www.w3.org/2000/svg" xmlns:xlink="http://www.w3.org/1999/xlink" width="1061" height="1037" viewBox="0 0 1061 1037"><path fill="#2E2D2E" transform="scale(11.7879 11.7879)" d="M0 0L90 0L90 5.26476C82.4294 13.8066 73.3864 21.6404 65.4023 29.835C62.4589 32.856 59.078 35.5786 56.2451 38.7119L56.31 70.4494C56.3092 74.8138 56.4069 79.7553 56.1458 84.1296C56.0829 85.1836 55.2346 86.3693 54.4746 87.1332C54.1784 87.4286 53.8758 87.7177 53.567 88L50.8358 88C45.7353 84.069 39.79 80.9983 34.6467 76.5763C33.1934 71.0718 33.6876 64.0107 33.7061 58.1905L33.7577 38.5069C32.4357 37.3945 30.2659 35.1057 28.9744 33.8346L20.6126 25.7304C14.8713 20.1917 4.77556 10.9268 0 5.23747L0 0Z"/></svg>