<?xml version="1.0" encoding="utf-8" ?><svg xmlns="http://www.w3.org/2000/svg" xmlns:xlink="http://www.w3.org/1999/xlink" width="1022" height="1022" viewBox="0 0 1022 1022"><path transform="scale(4.54302 4.54302)" d="M177.985 173.293C178.191 168.171 177.527 141.055 178.588 138.108C179.333 137.684 181.678 137.57 182.503 137.669C184.877 137.953 192.652 137.146 194.156 138.225C194.826 139.694 194.536 152.313 194.525 154.864C194.52 159.777 195.151 182.156 194.218 185.08C193.718 186.648 192.33 188.228 190.862 188.968C189.286 189.763 187.27 189.692 185.542 189.734C173.638 190.024 161.681 189.817 149.772 189.815L85.6277 189.808C78.9443 189.807 38.3123 190.403 34.7775 189.194C33.1493 188.638 31.8055 187.298 31.0626 185.767C30.6414 184.899 30.5078 184.034 30.4487 183.08C30.1587 178.404 30.0003 140.14 30.8342 137.783C32.701 137.663 44.5385 137.386 46.2238 138.125C47.2388 138.571 46.9838 146.198 46.982 148.121L46.9606 163.652C46.963 166.582 46.8782 170.389 47.1428 173.241L177.985 173.293Z"/><path transform="scale(4.54302 4.54302)" d="M112.157 35.1322C112.433 35.1743 112.697 35.2445 112.953 35.3587C114.394 36.001 134.787 62.1919 136.95 65.19C137.578 66.0596 138.134 66.922 138.522 67.9278C138.417 68.8128 138.57 68.6099 138.039 69.1818C135.96 69.8661 123.85 69.6345 120.769 69.7078C120.841 72.03 120.891 82.7547 120.755 84.6516C120.276 91.3652 121.614 143.454 120.24 145.263C118.775 146.101 115.106 145.924 113.287 145.936C111.236 145.942 106.082 146.226 104.644 145.214C103.849 143.387 104.126 130.495 104.129 127.891L104.144 89.3573C104.145 84.2328 104.452 74.3497 104 69.7117C100.67 69.7108 97.3133 69.5785 93.9732 69.6066C92.2816 69.6208 87.6904 69.8664 86.6264 68.8035C86.5739 68.4855 86.5205 68.1323 86.5784 67.8108C86.9144 65.9446 109.589 37.1317 112.157 35.1322Z"/></svg>